# xmcd
#
# Track frame offsets:
#	150
#	23447
#	36515
#	50550
#	60892
#	76850
#	88275
#	100345
#	132140
#	146865
#	160765
#	171827
#
# Disc length: 2465 seconds
#
# Revision: 1
# Processed by: cddbd v1.5.2PL0 Copyright (c) Steve Scherf et al.
# Submitted via: audiograbber 1.83.01
#
DISCID=98099f0c
DTITLE=Junior Barber - Steffi's Waltz
DYEAR=1900
DGENRE=
TTITLE0=Summer Rain
TTITLE1=Hazel Time
TTITLE2=Rosewood Casket
TTITLE3=Loafer's Glory
TTITLE4=Old Dogs, Children and Watermelon Wine
TTITLE5=Hula Love
TTITLE6=Cryin' Heart Blues
TTITLE7=St. Louis Blues
TTITLE8=Billy Boy
TTITLE9=In The Garden
TTITLE10=Uncle Zeb
TTITLE11=Steffi's Waltz
EXTD=
EXTT0=
EXTT1=
EXTT2=
EXTT3=
EXTT4=
EXTT5=
EXTT6=
EXTT7=
EXTT8=
EXTT9=
EXTT10=
EXTT11=
PLAYORDER=
